<svg xmlns="http://www.w3.org/2000/svg" width="1200" height="660" viewBox="0 0 1200 660">
  <rect width="1200" height="660" fill="#f8fafc" />
  <text x="40" y="42" font-family="Inter, Arial, sans-serif" font-size="28" font-weight="700" fill="#0f172a">Bus Ticket Booking - Full Stack Architecture</text>

  <rect x="90" y="110" width="220" height="56" rx="8" fill="#dbeafe" stroke="#1d4ed8" />
  <text x="155" y="145" font-family="Inter, Arial, sans-serif" font-size="16" fill="#1e3a8a">React Frontend</text>

  <rect x="380" y="110" width="250" height="56" rx="8" fill="#dcfce7" stroke="#166534" />
  <text x="435" y="145" font-family="Inter, Arial, sans-serif" font-size="16" fill="#166534">Spring Boot REST API</text>

  <line x1="310" y1="138" x2="380" y2="138" stroke="#334155" stroke-width="2" />
  <polygon points="380,138 372,133 372,143" fill="#334155" />

  <rect x="120" y="250" width="190" height="54" rx="8" fill="#ffffff" stroke="#64748b" />
  <text x="152" y="282" font-family="Inter, Arial, sans-serif" font-size="14" fill="#0f172a">Auth Module</text>
  <rect x="340" y="250" width="190" height="54" rx="8" fill="#ffffff" stroke="#64748b" />
  <text x="365" y="282" font-family="Inter, Arial, sans-serif" font-size="14" fill="#0f172a">Booking Module</text>
  <rect x="560" y="250" width="190" height="54" rx="8" fill="#ffffff" stroke="#64748b" />
  <text x="588" y="282" font-family="Inter, Arial, sans-serif" font-size="14" fill="#0f172a">Payment Module</text>
  <rect x="780" y="250" width="190" height="54" rx="8" fill="#ffffff" stroke="#64748b" />
  <text x="821" y="282" font-family="Inter, Arial, sans-serif" font-size="14" fill="#0f172a">Seat Module</text>

  <line x1="505" y1="166" x2="215" y2="250" stroke="#64748b" stroke-width="2" />
  <line x1="505" y1="166" x2="435" y2="250" stroke="#64748b" stroke-width="2" />
  <line x1="505" y1="166" x2="655" y2="250" stroke="#64748b" stroke-width="2" />
  <line x1="505" y1="166" x2="875" y2="250" stroke="#64748b" stroke-width="2" />

  <rect x="430" y="390" width="220" height="58" rx="8" fill="#e2e8f0" stroke="#475569" />
  <text x="505" y="425" font-family="Inter, Arial, sans-serif" font-size="15" fill="#1e293b">MySQL</text>
  <line x1="215" y1="304" x2="520" y2="390" stroke="#334155" stroke-width="2" />
  <line x1="435" y1="304" x2="540" y2="390" stroke="#334155" stroke-width="2" />
  <line x1="655" y1="304" x2="560" y2="390" stroke="#334155" stroke-width="2" />
  <line x1="875" y1="304" x2="580" y2="390" stroke="#334155" stroke-width="2" />

  <rect x="780" y="390" width="250" height="58" rx="8" fill="#fef3c7" stroke="#a16207" />
  <text x="825" y="425" font-family="Inter, Arial, sans-serif" font-size="15" fill="#92400e">PDF Ticket Generator</text>
  <line x1="435" y1="304" x2="905" y2="390" stroke="#a16207" stroke-width="2" />

  <rect x="180" y="520" width="820" height="80" rx="10" fill="#f1f5f9" stroke="#cbd5e1" />
  <text x="210" y="552" font-family="Inter, Arial, sans-serif" font-size="14" fill="#0f172a">Security: JWT bearer token validation on protected booking/payment APIs</text>
  <text x="210" y="575" font-family="Inter, Arial, sans-serif" font-size="14" fill="#0f172a">Flow: seat selection -> booking -> payment -> PDF receipt generation</text>
</svg>
