<svg xmlns="http://www.w3.org/2000/svg" width="1200" height="620" viewBox="0 0 1200 620">
  <rect width="1200" height="620" fill="#f8fafc" />
  <text x="40" y="42" font-family="Inter, Arial, sans-serif" font-size="28" font-weight="700" fill="#0f172a">Employee Management - Spring Boot Architecture</text>

  <rect x="130" y="110" width="260" height="56" rx="8" fill="#dbeafe" stroke="#1d4ed8" />
  <text x="180" y="145" font-family="Inter, Arial, sans-serif" font-size="16" fill="#1e3a8a">Thymeleaf Web UI</text>
  <rect x="440" y="110" width="260" height="56" rx="8" fill="#dcfce7" stroke="#166534" />
  <text x="504" y="145" font-family="Inter, Arial, sans-serif" font-size="16" fill="#166534">Spring Boot App</text>

  <line x1="390" y1="138" x2="440" y2="138" stroke="#334155" stroke-width="2" />
  <polygon points="440,138 432,133 432,143" fill="#334155" />

  <rect x="160" y="250" width="200" height="54" rx="8" fill="#ffffff" stroke="#64748b" />
  <text x="198" y="282" font-family="Inter, Arial, sans-serif" font-size="14" fill="#0f172a">Controller Layer</text>
  <rect x="400" y="250" width="200" height="54" rx="8" fill="#ffffff" stroke="#64748b" />
  <text x="455" y="282" font-family="Inter, Arial, sans-serif" font-size="14" fill="#0f172a">Service Layer</text>
  <rect x="640" y="250" width="200" height="54" rx="8" fill="#ffffff" stroke="#64748b" />
  <text x="678" y="282" font-family="Inter, Arial, sans-serif" font-size="14" fill="#0f172a">Repository Layer</text>

  <line x1="500" y1="166" x2="260" y2="250" stroke="#64748b" stroke-width="2" />
  <line x1="500" y1="166" x2="500" y2="250" stroke="#64748b" stroke-width="2" />
  <line x1="500" y1="166" x2="740" y2="250" stroke="#64748b" stroke-width="2" />

  <rect x="900" y="250" width="190" height="54" rx="8" fill="#fef3c7" stroke="#a16207" />
  <text x="940" y="282" font-family="Inter, Arial, sans-serif" font-size="14" fill="#92400e">Swagger API</text>
  <line x1="500" y1="166" x2="995" y2="250" stroke="#a16207" stroke-width="2" />

  <rect x="490" y="390" width="220" height="58" rx="8" fill="#e2e8f0" stroke="#475569" />
  <text x="567" y="425" font-family="Inter, Arial, sans-serif" font-size="15" fill="#1e293b">MySQL</text>
  <line x1="740" y1="304" x2="600" y2="390" stroke="#334155" stroke-width="2" />
  <line x1="500" y1="304" x2="580" y2="390" stroke="#334155" stroke-width="2" />

  <rect x="180" y="510" width="860" height="72" rx="10" fill="#f1f5f9" stroke="#cbd5e1" />
  <text x="210" y="542" font-family="Inter, Arial, sans-serif" font-size="14" fill="#0f172a">Features: CRUD, search-by-name, validation rules, and global exception handling</text>
  <text x="210" y="565" font-family="Inter, Arial, sans-serif" font-size="14" fill="#0f172a">Dual Interface: Thymeleaf pages + documented REST endpoints via Swagger UI</text>
</svg>
