<svg xmlns="http://www.w3.org/2000/svg" width="1200" height="660" viewBox="0 0 1200 660">
  <rect width="1200" height="660" fill="#f8fafc" />
  <text x="40" y="42" font-family="Inter, Arial, sans-serif" font-size="28" font-weight="700" fill="#0f172a">Patient Medicine &amp; Appointment - Role-Based Architecture</text>

  <rect x="110" y="110" width="260" height="56" rx="8" fill="#dbeafe" stroke="#1d4ed8" />
  <text x="154" y="145" font-family="Inter, Arial, sans-serif" font-size="16" fill="#1e3a8a">Thymeleaf + Bootstrap UI</text>

  <rect x="430" y="110" width="280" height="56" rx="8" fill="#dcfce7" stroke="#166534" />
  <text x="473" y="145" font-family="Inter, Arial, sans-serif" font-size="16" fill="#166534">Spring Boot + Spring Security</text>

  <line x1="370" y1="138" x2="430" y2="138" stroke="#334155" stroke-width="2" />
  <polygon points="430,138 422,133 422,143" fill="#334155" />

  <rect x="110" y="250" width="180" height="54" rx="8" fill="#ffffff" stroke="#64748b" />
  <text x="156" y="282" font-family="Inter, Arial, sans-serif" font-size="14" fill="#0f172a">Admin Flow</text>
  <rect x="320" y="250" width="180" height="54" rx="8" fill="#ffffff" stroke="#64748b" />
  <text x="365" y="282" font-family="Inter, Arial, sans-serif" font-size="14" fill="#0f172a">Doctor Flow</text>
  <rect x="530" y="250" width="180" height="54" rx="8" fill="#ffffff" stroke="#64748b" />
  <text x="572" y="282" font-family="Inter, Arial, sans-serif" font-size="14" fill="#0f172a">Patient Flow</text>
  <rect x="740" y="250" width="220" height="54" rx="8" fill="#fee2e2" stroke="#b91c1c" />
  <text x="770" y="282" font-family="Inter, Arial, sans-serif" font-size="14" fill="#991b1b">Forgot / Reset Password</text>

  <line x1="570" y1="166" x2="200" y2="250" stroke="#64748b" stroke-width="2" />
  <line x1="570" y1="166" x2="410" y2="250" stroke="#64748b" stroke-width="2" />
  <line x1="570" y1="166" x2="620" y2="250" stroke="#64748b" stroke-width="2" />
  <line x1="570" y1="166" x2="850" y2="250" stroke="#64748b" stroke-width="2" />

  <rect x="220" y="390" width="240" height="58" rx="8" fill="#e2e8f0" stroke="#475569" />
  <text x="272" y="425" font-family="Inter, Arial, sans-serif" font-size="15" fill="#1e293b">Appointment Service</text>
  <rect x="510" y="390" width="240" height="58" rx="8" fill="#e2e8f0" stroke="#475569" />
  <text x="568" y="425" font-family="Inter, Arial, sans-serif" font-size="15" fill="#1e293b">Medication Service</text>

  <line x1="410" y1="304" x2="340" y2="390" stroke="#334155" stroke-width="2" />
  <line x1="620" y1="304" x2="630" y2="390" stroke="#334155" stroke-width="2" />

  <rect x="820" y="390" width="180" height="58" rx="8" fill="#e2e8f0" stroke="#475569" />
  <text x="885" y="425" font-family="Inter, Arial, sans-serif" font-size="15" fill="#1e293b">MySQL</text>
  <line x1="340" y1="448" x2="900" y2="420" stroke="#334155" stroke-width="2" />
  <line x1="630" y1="448" x2="900" y2="430" stroke="#334155" stroke-width="2" />

  <rect x="180" y="520" width="860" height="80" rx="10" fill="#f1f5f9" stroke="#cbd5e1" />
  <text x="210" y="552" font-family="Inter, Arial, sans-serif" font-size="14" fill="#0f172a">Security Model: role-based route access (ADMIN / DOCTOR / PATIENT)</text>
  <text x="210" y="575" font-family="Inter, Arial, sans-serif" font-size="14" fill="#0f172a">Core Workflows: appointment scheduling, medication updates, and secure account recovery</text>
</svg>
