<svg xmlns="http://www.w3.org/2000/svg" width="1200" height="680" viewBox="0 0 1200 680">
  <rect width="1200" height="680" fill="#f8fafc" />
  <text x="40" y="42" font-family="Inter, Arial, sans-serif" font-size="28" font-weight="700" fill="#0f172a">VaultCore Financial - Secure Banking Core Architecture</text>

  <rect x="80" y="110" width="190" height="56" rx="8" fill="#dbeafe" stroke="#1d4ed8" />
  <text x="138" y="145" font-family="Inter, Arial, sans-serif" font-size="16" fill="#1e3a8a">Client</text>

  <rect x="340" y="110" width="240" height="56" rx="8" fill="#dcfce7" stroke="#166534" />
  <text x="394" y="145" font-family="Inter, Arial, sans-serif" font-size="16" fill="#166534">Nginx Gateway :8082</text>

  <line x1="270" y1="138" x2="340" y2="138" stroke="#334155" stroke-width="2" />
  <polygon points="340,138 332,133 332,143" fill="#334155" />

  <rect x="220" y="250" width="230" height="58" rx="8" fill="#ffffff" stroke="#64748b" />
  <text x="266" y="285" font-family="Inter, Arial, sans-serif" font-size="15" fill="#0f172a">Frontend (React)</text>

  <rect x="490" y="250" width="240" height="58" rx="8" fill="#ffffff" stroke="#64748b" />
  <text x="525" y="285" font-family="Inter, Arial, sans-serif" font-size="15" fill="#0f172a">Spring Boot API</text>

  <rect x="770" y="250" width="220" height="58" rx="8" fill="#fee2e2" stroke="#b91c1c" />
  <text x="822" y="285" font-family="Inter, Arial, sans-serif" font-size="15" fill="#991b1b">Keycloak</text>

  <line x1="460" y1="166" x2="335" y2="250" stroke="#64748b" stroke-width="2" />
  <text x="292" y="220" font-family="Inter, Arial, sans-serif" font-size="12" fill="#475569">/</text>
  <line x1="460" y1="166" x2="610" y2="250" stroke="#64748b" stroke-width="2" />
  <text x="610" y="220" font-family="Inter, Arial, sans-serif" font-size="12" fill="#475569">/api/*</text>
  <line x1="460" y1="166" x2="880" y2="250" stroke="#64748b" stroke-width="2" />
  <text x="845" y="220" font-family="Inter, Arial, sans-serif" font-size="12" fill="#475569">/auth/*</text>

  <rect x="430" y="400" width="220" height="58" rx="8" fill="#e2e8f0" stroke="#475569" />
  <text x="490" y="435" font-family="Inter, Arial, sans-serif" font-size="15" fill="#1e293b">PostgreSQL</text>
  <rect x="700" y="400" width="180" height="58" rx="8" fill="#e2e8f0" stroke="#475569" />
  <text x="764" y="435" font-family="Inter, Arial, sans-serif" font-size="15" fill="#1e293b">Redis</text>
  <rect x="160" y="400" width="210" height="58" rx="8" fill="#e2e8f0" stroke="#475569" />
  <text x="197" y="435" font-family="Inter, Arial, sans-serif" font-size="15" fill="#1e293b">Stock Mock Service</text>

  <line x1="610" y1="308" x2="540" y2="400" stroke="#334155" stroke-width="2" />
  <line x1="610" y1="308" x2="790" y2="400" stroke="#334155" stroke-width="2" />
  <line x1="610" y1="308" x2="265" y2="400" stroke="#334155" stroke-width="2" />

  <rect x="240" y="530" width="700" height="90" rx="10" fill="#f1f5f9" stroke="#cbd5e1" />
  <text x="270" y="565" font-family="Inter, Arial, sans-serif" font-size="14" fill="#0f172a">Security: OAuth2/OIDC + JWT validation at backend routes</text>
  <text x="270" y="590" font-family="Inter, Arial, sans-serif" font-size="14" fill="#0f172a">Data Integrity: Flyway migrations + ACID-oriented transaction flow</text>
  <text x="270" y="615" font-family="Inter, Arial, sans-serif" font-size="14" fill="#0f172a">Runtime: Docker Compose, health checks, Java virtual threads enabled</text>
</svg>
